<?xml version="1.0" standalone="no"?>
<!DOCTYPE svg PUBLIC "-//W3C//DTD SVG 20010904//EN"
 "http://www.w3.org/TR/2001/REC-SVG-20010904/DTD/svg10.dtd">
<svg version="1.0" xmlns="http://www.w3.org/2000/svg"
 width="300.000000pt" height="300.000000pt" viewBox="0 0 300.000000 300.000000"
 preserveAspectRatio="xMidYMid meet">
<metadata>
Created by potrace 1.10, written by Peter Selinger 2001-2011
</metadata>
<g transform="translate(0.000000,300.000000) scale(0.100000,-0.100000)"
fill="#FFFFFF" stroke="none">
<path d="M920 1834 c-78 -21 -146 -69 -197 -137 -76 -104 -73 -77 -71 -847 l3
-685 695 0 695 0 48 22 c116 54 197 155 217 271 8 47 11 220 8 582 -3 509 -3
516 -26 572 -42 104 -116 179 -214 216 -38 15 -108 17 -573 19 -443 2 -539 0
-585 -13z m1162 -86 c56 -24 111 -81 142 -147 21 -45 21 -55 21 -601 l0 -555
-24 -48 c-13 -26 -45 -67 -71 -90 -88 -79 -68 -77 -791 -77 l-640 0 3 667 3
668 27 51 c28 53 76 101 131 131 29 16 78 18 532 23 575 6 603 5 667 -22z"/>
<path d="M1434 1560 c-11 -4 -33 -22 -47 -40 -39 -46 -38 -107 3 -154 50 -57
123 -60 179 -7 97 90 -11 251 -135 201z m88 -67 c26 -23 24 -78 -4 -97 -30
-21 -54 -20 -78 4 -56 56 23 146 82 93z"/>
<path d="M1081 1414 c-76 -64 -34 -173 67 -174 35 0 49 6 73 29 90 90 -42 228
-140 145z m93 -50 c21 -20 20 -27 -5 -50 -15 -14 -24 -16 -37 -8 -22 14 -27
41 -12 59 16 19 35 19 54 -1z"/>
<path d="M1757 1420 c-32 -26 -51 -79 -38 -111 11 -31 49 -65 80 -72 35 -9 94
19 115 54 54 92 -72 195 -157 129z m97 -62 c14 -23 -3 -52 -32 -56 -32 -5 -49
34 -26 59 21 23 42 21 58 -3z"/>
<path d="M1000 1118 c-118 -60 -73 -223 62 -223 45 0 53 4 84 37 28 31 34 46
34 82 0 51 -27 92 -76 112 -44 19 -52 18 -104 -8z m104 -70 c21 -30 20 -47 -6
-75 -25 -27 -45 -29 -76 -7 -28 19 -31 78 -4 93 30 18 70 13 86 -11z"/>
<path d="M1435 1126 c-47 -21 -67 -51 -73 -106 -4 -46 -2 -52 30 -84 42 -42
91 -54 141 -32 42 17 77 68 77 111 0 43 -35 94 -75 111 -42 17 -61 17 -100 0z
m83 -62 c33 -23 27 -83 -10 -103 -25 -14 -29 -14 -55 5 -39 29 -41 66 -7 93
32 25 42 26 72 5z"/>
<path d="M1824 1096 c-28 -28 -34 -42 -34 -75 0 -57 22 -95 66 -116 97 -46
206 42 174 140 -18 54 -62 85 -122 85 -44 0 -54 -4 -84 -34z m131 -42 c25 -25
16 -75 -17 -94 -25 -13 -31 -13 -55 0 -54 30 -34 110 28 110 15 0 35 -7 44
-16z"/>
<path d="M1091 766 c-48 -27 -66 -100 -35 -145 9 -13 31 -29 50 -37 114 -48
197 100 100 178 -25 21 -81 23 -115 4z m83 -65 c33 -36 -18 -83 -52 -49 -15
15 -15 41 0 56 17 17 32 15 52 -7z"/>
<path d="M1748 750 c-27 -28 -30 -36 -25 -75 5 -52 20 -73 63 -91 103 -43 191
84 115 165 -24 26 -36 31 -76 31 -39 0 -52 -5 -77 -30z m96 -36 c10 -4 16 -18
16 -35 0 -22 -6 -30 -24 -35 -33 -8 -46 2 -46 36 0 34 21 47 54 34z"/>
<path d="M1417 684 c-16 -9 -37 -34 -47 -56 -32 -72 4 -146 81 -169 72 -22
159 44 159 121 0 94 -106 151 -193 104z m121 -76 c20 -42 -2 -82 -47 -86 -60
-6 -94 56 -54 100 26 29 84 21 101 -14z"/>
</g>
</svg>
